<?xml version="1.0" encoding="utf-8"?>
<!-- Generator: Adobe Illustrator 19.0.0, SVG Export Plug-In . SVG Version: 6.00 Build 0)  -->
<svg version="1.1" id="Layer_1" xmlns="http://www.w3.org/2000/svg" xmlns:xlink="http://www.w3.org/1999/xlink" x="0px" y="0px"
	 viewBox="0 0 126.8 126.8" style="enable-background:new 0 0 126.8 126.8;" xml:space="preserve">
<style type="text/css">
	.st0{fill:#6D6E71;}
</style>
<path id="XMLID_4_" class="st0" d="M96,44.1c0.8,1.1,0.6,2.6-0.4,3.5L64.5,71.7c-0.4,0.4-1,0.5-1.5,0.5c-0.5,0-1.1-0.2-1.5-0.5
	L31.1,47.5C30,46.6,29.8,45,30.6,44c0.9-1.1,2.4-1.3,3.5-0.4l28.9,23l29.6-22.9C93.6,42.8,95.2,43,96,44.1z M126.8,63.4
	c0,35-28.4,63.4-63.4,63.4C28.4,126.8,0,98.4,0,63.4C0,28.4,28.4,0,63.4,0C98.4,0,126.8,28.4,126.8,63.4z M104.6,40.4
	c0-2.9-2.3-5.2-5.2-5.2h-72c-2.8,0-5.1,2.3-5.1,5.2v46c0,2.9,2.3,5.2,5.1,5.2h72c2.9,0,5.2-2.3,5.2-5.2V40.4z M34.5,83.4l14.9-12.7
	c1.1-0.9,1.2-2.5,0.3-3.6c-0.9-1.1-2.5-1.2-3.6-0.3L31.2,79.4c-1.1,0.9-1.2,2.5-0.3,3.6c0.5,0.6,1.2,0.9,2,0.9
	C33.5,84,34.1,83.8,34.5,83.4z M95.8,83.1c0.9-1.1,0.8-2.7-0.3-3.6L80.6,66.7c-1.1-0.9-2.7-0.8-3.6,0.3c-0.9,1.1-0.8,2.7,0.3,3.6
	l14.9,12.7c0.5,0.4,1.1,0.6,1.7,0.6C94.6,84,95.3,83.7,95.8,83.1z"/>
</svg>
