<?xml version="1.0" encoding="utf-8"?>
<!-- Generator: Adobe Illustrator 19.0.0, SVG Export Plug-In . SVG Version: 6.00 Build 0)  -->
<svg version="1.1" id="Layer_1" xmlns="http://www.w3.org/2000/svg" xmlns:xlink="http://www.w3.org/1999/xlink" x="0px" y="0px"
	 viewBox="0 0 126.8 126.8" style="enable-background:new 0 0 126.8 126.8;" xml:space="preserve">
<style type="text/css">
	.st0{fill:#6D6E71;}
</style>
<path class="st0" d="M63.4,0C28.4,0,0,28.4,0,63.4c0,35,28.4,63.4,63.4,63.4c35,0,63.4-28.4,63.4-63.4C126.8,28.4,98.4,0,63.4,0z
	 M98.7,94.2c0,2.8-2.3,5.1-5.2,5.1H33.2c-2.9,0-5.2-2.3-5.2-5.1v-61c0-2.8,2.3-5.1,5.2-5.1h60.3c2.9,0,5.2,2.3,5.2,5.1V94.2z
	 M87.9,69.3v18.4H77.3V70.5c0-4.3-1.5-7.3-5.4-7.3c-2.9,0-4.7,2-5.5,3.9c-0.3,0.7-0.4,1.6-0.4,2.6v18H55.3c0,0,0.1-29.1,0-32.1H66
	v4.6c0,0,0,0.1-0.1,0.1H66v-0.1c1.4-2.2,4-5.3,9.6-5.3C82.7,54.8,87.9,59.4,87.9,69.3z M50.1,45.6c0,3.1-2.3,5.6-6,5.6H44
	c-3.6,0-5.9-2.5-5.9-5.6c0-3.2,2.4-5.6,6-5.6C47.8,40.1,50,42.5,50.1,45.6z M38.7,55.6h10.7v32.1H38.7V55.6z"/>
</svg>
