<?xml version="1.0" encoding="utf-8"?>
<!-- Generator: Adobe Illustrator 19.0.0, SVG Export Plug-In . SVG Version: 6.00 Build 0)  -->
<svg version="1.1" id="Layer_1" xmlns="http://www.w3.org/2000/svg" xmlns:xlink="http://www.w3.org/1999/xlink" x="0px" y="0px"
	 viewBox="0 0 600 415.3" style="enable-background:new 0 0 600 415.3;" xml:space="preserve">
<style type="text/css">
	.st0{fill:#F7921E;}
	.st1{fill:#929497;}
</style>
<g id="XMLID_30_">
	<path id="XMLID_59_" class="st0" d="M8,298.4c-1.6-1.6-1.6-4.2,0-5.8L299.4,1.2c1.2-1.2,2.9-1.5,4.5-0.9c1.5,0.6,2.5,2.1,2.5,3.8
		v124.7c0,2.3-1.8,4.1-4.1,4.1l0,0c-2.3,0-4.1-1.8-4.1-4.1V18c0-2.3-1.3-2.8-2.9-1.2L13.8,298.4C12.2,300,9.6,300,8,298.4z
		 M596.6,4.1c-1.6-1.6-4.2-1.6-5.8,0L309.3,285.6c-1.6,1.6-2.9,1.1-2.9-1.2V173.7c0-2.3-1.8-4.1-4.1-4.1l0,0c-2.3,0-4.1,1.8-4.1,4.1
		v124.7c0,1.7,1,3.1,2.5,3.8c0.5,0.2,1,0.3,1.6,0.3c1.1,0,2.1-0.4,2.9-1.2l141.4-141.4c1.6-1.6,4.2-1.6,5.8,0l138.5,138.5
		c1.6,1.6,4.2,1.6,5.8,0c1.6-1.6,1.6-4.2,0-5.8L458.1,154.1c-1.6-1.6-1.6-4.2,0-5.8L596.6,9.9C598.2,8.3,598.2,5.7,596.6,4.1z"/>
	<g id="XMLID_2_">
		<path id="XMLID_3_" class="st1" d="M10,399.4l-7.4,14.7c-0.8,1.6-3.2,0.3-2.4-1.3l26.4-52c0.2-0.5,0.7-0.7,1.2-0.7
			s0.9,0.2,1.2,0.7l26.5,52c0.8,1.7-1.6,2.9-2.4,1.3l-7.4-14.7H10z M27.8,364.1L11.2,397h33.1L27.8,364.1z"/>
		<path id="XMLID_6_" class="st1" d="M70.8,399.4l-7.4,14.7c-0.8,1.6-3.2,0.3-2.4-1.3l26.4-52c0.2-0.5,0.7-0.7,1.2-0.7
			c0.5,0,0.9,0.2,1.2,0.7l26.5,52c0.8,1.7-1.6,2.9-2.4,1.3l-7.4-14.7H70.8z M88.6,364.1L72.1,397h33.1L88.6,364.1z"/>
		<path id="XMLID_9_" class="st1" d="M128,394.8v18.3c0,1.8-2.7,1.8-2.7,0.1v-50.3c0-0.8,0.6-1.4,1.4-1.4h20.9
			c14,0,21.1,7.9,21.1,17.2c0,9-6,15.3-18.1,16.2l17.2,17.7c1.3,1.4-0.4,3.2-1.7,1.9l-18.7-19.7H128z M128,392.4h19.7
			c12.9,0,18.4-6.1,18.2-13.7c-0.1-8.1-6.9-14.7-18.2-14.7H128V392.4z"/>
		<path id="XMLID_12_" class="st1" d="M178.2,387c0.4-12.9,8.4-24.2,21.4-26.3c2.9-0.4,6.1-0.4,9,0c13.1,2.1,22.1,13.4,22.4,26.3
			c0.5,16-11.9,28.3-26.4,28.3C190.2,415.3,177.8,403,178.2,387z M181,387.1c-0.4,14.3,10.7,25.6,23.5,25.6
			c12.9,0,24-11.4,23.6-25.6c-0.3-11.6-8.3-21.9-20.1-23.7c-2.7-0.4-5.5-0.4-8.1,0C188.3,365.2,181.3,375.5,181,387.1z"/>
		<path id="XMLID_15_" class="st1" d="M281.7,362.7c0-2.1,2.8-2.1,2.8,0v49.9c0,2-1.8,2-2.9,0.7l-36.1-47v46.5c0,2-2.7,2-2.7,0V363
			c0-2.1,1.7-2.3,2.9-0.8l36,47V362.7z"/>
		<path id="XMLID_17_" class="st1" d="M360.8,361.3c1.4-1.2,3.5,0.7,2.2,1.9l-24.7,21.9l26.1,27.3c1.5,1.3-0.7,3.2-2,1.8l-26.1-27.4
			l-11,9.8v16.7c0,0.7-0.6,1.3-1.4,1.3c-0.7,0-1.4-0.6-1.4-1.3v-50.9c0-0.7,0.7-1.4,1.4-1.4c0.8,0,1.4,0.7,1.4,1.4v31L360.8,361.3z"
			/>
		<path id="XMLID_19_" class="st1" d="M377.2,394.8v18.3c0,1.8-2.7,1.8-2.7,0.1v-50.3c0-0.8,0.6-1.4,1.4-1.4h20.9
			c14,0,21.1,7.9,21.1,17.2c0,9-6,15.3-18.1,16.2l17.2,17.7c1.3,1.4-0.4,3.2-1.7,1.9l-18.7-19.7H377.2z M377.2,392.4h19.7
			c12.9,0,18.4-6.1,18.2-13.7c-0.1-8.1-6.9-14.7-18.2-14.7h-19.7V392.4z"/>
		<path id="XMLID_22_" class="st1" d="M431.7,411.6h36.6c1.7,0,1.7,2.7,0,2.7h-37.1c-1.3,0-2.2-1-2.2-2.2v-48.3
			c0-1.2,0.9-2.2,2.2-2.2h37.2c1.7,0,1.7,2.5-0.1,2.5h-36.6v22.9h35c1.7,0,1.7,2.5,0,2.5h-35V411.6z"/>
		<path id="XMLID_24_" class="st1" d="M481.9,362.5c0-2.1,3-2.1,3,0v50.3c0,1.9-3,1.9-3,0V362.5z"/>
		<path id="XMLID_26_" class="st1" d="M522.6,415.1c-14.2-0.2-26.4-11.9-26-27.6c0.4-12.7,9.1-24.5,22-26.6
			c8.2-1.2,18.1,1.2,23.7,7.4c1.3,1.6-0.7,3.3-2,1.9c-5.1-5.6-13.9-7.7-21.3-6.5c-11.5,1.8-19.3,12.6-19.7,24
			c-0.3,13.8,10.7,24.5,23.5,24.8c7.2,0.1,14.8-3.1,19-9.1v-13.8h-17.7c-1.6,0-1.6-2.5,0-2.5h18.7c1.2,0,1.5,0.7,1.5,1.6v14.8
			c0,0.7-0.1,1.4-0.6,1.9C538.7,411.6,530.6,415.2,522.6,415.1z"/>
		<path id="XMLID_28_" class="st1" d="M561.2,387.8h36V363c0-2.1,2.8-2.1,2.8,0V413c0,1.9-2.8,1.9-2.8,0v-22.7l-36-0.1V413
			c0,1.9-2.7,1.9-2.7,0V363c0-2.1,2.7-2.1,2.7,0V387.8z"/>
	</g>
</g>
</svg>
