<?xml version="1.0" encoding="utf-8"?>
<!-- Generator: Adobe Illustrator 19.0.0, SVG Export Plug-In . SVG Version: 6.00 Build 0)  -->
<svg version="1.1" id="Layer_1" xmlns="http://www.w3.org/2000/svg" xmlns:xlink="http://www.w3.org/1999/xlink" x="0px" y="0px"
	 viewBox="0 0 126.8 126.8" style="enable-background:new 0 0 126.8 126.8;" xml:space="preserve">
<style type="text/css">
	.st0{fill:#6D6E71;}
</style>
<path id="XMLID_4_" class="st0" d="M63.4,0C28.4,0,0,28.4,0,63.4c0,35,28.4,63.4,63.4,63.4s63.4-28.4,63.4-63.4
	C126.8,28.4,98.5,0,63.4,0z M98,48.1c0,0.7,0.1,1.4,0.1,2.1C98,72,81.5,97,51.3,97c-9.3,0-17.9-2.7-25.2-7.4
	c1.3,0.2,2.6,0.2,3.9,0.2c7.7,0,14.8-2.6,20.4-7c-7.2-0.1-13.3-4.9-15.3-11.4c1,0.2,2,0.3,3.1,0.3c1.5,0,2.9-0.2,4.3-0.6
	C35,69.6,29.3,63,29.3,55v-0.2c2.2,1.2,4.8,2,7.4,2.1c-4.4-2.9-7.3-8-7.3-13.7c0-3,0.8-5.8,2.2-8.3c8.1,9.9,20.2,16.5,33.8,17.2
	c-0.3-1.2-0.4-2.4-0.4-3.7c0-9.1,7.3-16.4,16.4-16.4c4.7,0,9,2,12,5.2c3.7-0.7,7.2-2.1,10.4-4c-1.2,3.8-3.8,7-7.2,9.1
	c3.3-0.4,6.5-1.3,9.4-2.6C104,42.9,101.2,45.8,98,48.1z"/>
</svg>
